<?xml version="1.0" encoding="UTF-8"?> <!-- Generator: Adobe Illustrator 23.0.3, SVG Export Plug-In . SVG Version: 6.00 Build 0) --> <svg xmlns="http://www.w3.org/2000/svg" xmlns:xlink="http://www.w3.org/1999/xlink" version="1.1" id="Capa_1" x="0px" y="0px" viewBox="0 0 254.7 51.6" style="enable-background:new 0 0 254.7 51.6;" xml:space="preserve"> <style type="text/css"> .st0{fill:#FFFFFF;} </style> <g> <path class="st0" d="M252.2,18.9c0,4.2-1.5,7.8-4.5,10.8c-3,3-6.6,4.5-10.8,4.5c-4.2,0-7.9-1.5-10.8-4.5c-3-3-4.5-6.6-4.5-10.8 c0-4.2,1.5-7.8,4.5-10.8c3-3,6.6-4.5,10.8-4.5c4.2,0,7.8,1.5,10.8,4.5c1.5,1.5,2.6,3.2,3.4,4.9C251.8,14.8,252.2,16.8,252.2,18.9 M236.9,7.6c-1.6,0-3,0.3-4.3,0.8c-1.3,0.6-2.5,1.4-3.6,2.5c-1.1,1.1-1.9,2.3-2.5,3.6c-0.5,1.3-0.8,2.7-0.8,4.3 c0,3.1,1.1,5.8,3.3,8c2.2,2.2,4.9,3.3,8,3.3c3.1,0,5.8-1.1,8-3.3c2.2-2.2,3.3-4.9,3.3-8c0-3.1-1.1-5.8-3.3-8 C242.6,8.7,240,7.6,236.9,7.6 M207.6,34.2c-0.9,0-1.5-0.4-1.9-1.3L195.4,6.6c-0.2-0.4-0.2-0.7-0.2-1c0-0.3,0.1-0.5,0.2-0.8 c0.1-0.2,0.2-0.5,0.4-0.6c0.2-0.2,0.4-0.3,0.6-0.4c0.2-0.1,0.5-0.2,0.8-0.2c0.9,0,1.5,0.4,1.9,1.2l8.5,21.8l8.5-21.8 c0.3-0.8,0.9-1.2,1.9-1.2c0.3,0,0.6,0.1,0.8,0.2c0.2,0.1,0.5,0.2,0.7,0.4c0.2,0.2,0.3,0.4,0.4,0.6c0.1,0.2,0.2,0.5,0.2,0.8 c0,0.3-0.1,0.7-0.2,1L209.5,33C209.1,33.8,208.5,34.2,207.6,34.2 M191.4,32.2c0,0.6-0.2,1-0.6,1.4c-0.4,0.4-0.9,0.6-1.4,0.6 c-0.6,0-1-0.2-1.4-0.6c-0.4-0.4-0.6-0.9-0.6-1.4V5.6c0-0.6,0.2-1,0.6-1.4c0.4-0.4,0.9-0.6,1.4-0.6c0.6,0,1,0.2,1.4,0.6 c0.4,0.4,0.6,0.9,0.6,1.4V32.2z M181.2,7.6h-7.6v24.6c0,0.6-0.2,1-0.6,1.4c-0.4,0.4-0.9,0.6-1.4,0.6c-0.6,0-1-0.2-1.4-0.6 c-0.4-0.4-0.6-0.9-0.6-1.4V7.6H162c-0.6,0-1-0.2-1.4-0.6c-0.4-0.4-0.6-0.9-0.6-1.4c0-0.6,0.2-1,0.6-1.4c0.4-0.4,0.9-0.6,1.4-0.6 h19.2c0.6,0,1,0.2,1.4,0.6c0.4,0.4,0.6,0.9,0.6,1.4c0,0.6-0.2,1-0.6,1.4C182.2,7.4,181.8,7.6,181.2,7.6 M155.1,7.6h-7.6v24.6 c0,0.6-0.2,1-0.6,1.4c-0.4,0.4-0.9,0.6-1.4,0.6c-0.6,0-1-0.2-1.4-0.6c-0.4-0.4-0.6-0.9-0.6-1.4V7.6h-7.6c-0.6,0-1-0.2-1.4-0.6 c-0.4-0.4-0.6-0.9-0.6-1.4c0-0.6,0.2-1,0.6-1.4c0.4-0.4,0.9-0.6,1.4-0.6h19.2c0.6,0,1,0.2,1.4,0.6c0.4,0.4,0.6,0.9,0.6,1.4 c0,0.6-0.2,1-0.6,1.4C156.2,7.4,155.7,7.6,155.1,7.6 M129.1,27.3c0.3,0,0.5,0.1,0.8,0.2c0.2,0.1,0.5,0.2,0.6,0.4 c0.2,0.2,0.3,0.4,0.4,0.6c0.1,0.2,0.2,0.5,0.2,0.8c0,0.5-0.2,1-0.6,1.5c-2.9,2.3-6.1,3.4-9.6,3.4c-4.2,0-7.9-1.5-10.8-4.5 c-3-3-4.5-6.6-4.5-10.8c0-4.2,1.5-7.8,4.5-10.8c3-3,6.6-4.5,10.8-4.5c3.6,0,6.9,1.2,9.8,3.6c0.4,0.3,0.5,0.8,0.5,1.4 c0,0.3-0.1,0.6-0.2,0.8c-0.1,0.2-0.2,0.5-0.4,0.6c-0.2,0.2-0.4,0.3-0.7,0.4c-0.2,0.1-0.5,0.2-0.8,0.2c-0.5,0-1-0.2-1.4-0.6 c-1-0.8-2-1.4-3.2-1.8c-1.2-0.4-2.4-0.6-3.7-0.6c-3.1,0-5.8,1.1-8,3.3c-2.2,2.2-3.3,4.8-3.3,8c0,3.1,1.1,5.8,3.3,8 c2.2,2.2,4.9,3.3,8,3.3c2.7,0,5-0.8,7.1-2.5C128.3,27.5,128.7,27.4,129.1,27.3 M81.8,33c-0.4,0.8-1,1.2-1.9,1.2 c-0.3,0-0.6,0-0.8-0.2c-0.2-0.1-0.5-0.2-0.6-0.4c-0.2-0.2-0.3-0.4-0.4-0.6c-0.1-0.2-0.2-0.5-0.2-0.8c0-0.3,0.1-0.5,0.2-0.8L88.4,5 c0.4-0.9,1.1-1.4,1.9-1.4c0.9,0,1.5,0.5,1.9,1.4l10.3,26.4c0.1,0.3,0.2,0.5,0.2,0.8c0,0.3-0.1,0.6-0.2,0.8 c-0.1,0.2-0.2,0.5-0.4,0.6c-0.2,0.2-0.4,0.3-0.7,0.4c-0.2,0.1-0.5,0.2-0.8,0.2c-0.9,0-1.5-0.4-1.9-1.2l-8.5-21.8L81.8,33z M71.7,16.9c0.3,0,0.5,0.1,0.8,0.2c0.2,0.1,0.5,0.2,0.6,0.4c0.2,0.2,0.3,0.4,0.4,0.6c0.1,0.2,0.2,0.5,0.2,0.8 c0,0.3-0.1,0.6-0.2,0.8c-0.1,0.2-0.2,0.5-0.4,0.6c-0.2,0.2-0.4,0.3-0.6,0.4c-0.2,0.1-0.5,0.2-0.8,0.2H56.9c-0.5,0-0.9-0.2-1.4-0.6 c-0.4-0.4-0.6-0.8-0.6-1.4c0-0.3,0-0.5,0.2-0.7c0.1-0.2,0.2-0.5,0.4-0.6c0.2-0.2,0.4-0.3,0.6-0.5c0.2-0.1,0.5-0.2,0.8-0.2H71.7z M73.1,30.2c0.3,0,0.5,0.1,0.8,0.2c0.2,0.1,0.5,0.2,0.6,0.4c0.2,0.2,0.3,0.4,0.4,0.6c0.1,0.2,0.2,0.5,0.2,0.8 c0,0.3-0.1,0.6-0.2,0.8c-0.1,0.2-0.2,0.5-0.4,0.6c-0.2,0.2-0.4,0.3-0.6,0.4c-0.3,0.1-0.5,0.2-0.8,0.2H55.4c-0.3,0-0.6,0-0.8-0.2 c-0.2-0.1-0.5-0.2-0.6-0.4c-0.2-0.2-0.3-0.4-0.4-0.6c-0.1-0.2-0.2-0.5-0.2-0.8c0-0.3,0.1-0.5,0.2-0.8c0.1-0.2,0.2-0.5,0.4-0.6 c0.2-0.2,0.4-0.3,0.6-0.4c0.2-0.1,0.5-0.2,0.8-0.2H73.1 M73.1,3.6c0.3,0,0.5,0.1,0.8,0.2c0.2,0.1,0.5,0.2,0.6,0.4 c0.2,0.2,0.3,0.4,0.4,0.6c0.1,0.2,0.2,0.5,0.2,0.8c0,0.3-0.1,0.6-0.2,0.8c-0.1,0.2-0.2,0.5-0.4,0.6c-0.2,0.2-0.4,0.3-0.6,0.4 c-0.3,0.1-0.5,0.2-0.8,0.2H55.4c-0.3,0-0.6,0-0.8-0.2c-0.2-0.1-0.5-0.2-0.6-0.4c-0.2-0.2-0.3-0.4-0.4-0.6c-0.1-0.2-0.2-0.5-0.2-0.8 c0-0.3,0.1-0.5,0.2-0.8c0.1-0.2,0.2-0.5,0.4-0.6c0.2-0.2,0.4-0.3,0.6-0.4c0.2-0.1,0.5-0.2,0.8-0.2H73.1 M30.4,32.2V5.6 c0-0.3,0.1-0.5,0.2-0.8c0.1-0.2,0.2-0.5,0.4-0.6c0.2-0.2,0.4-0.3,0.6-0.4c0.2-0.1,0.5-0.2,0.8-0.2h7.4c1.3,0,2.5,0.3,3.6,0.7 c1.1,0.5,2.1,1.2,3,2c0.8,0.9,1.5,1.9,2,3c0.5,1.1,0.7,2.4,0.7,3.6c0,0.8-0.1,1.7-0.3,2.5c-0.2,0.8-0.5,1.6-0.9,2.3 c-0.4,0.7-0.9,1.4-1.6,2c-0.6,0.6-1.3,1.1-2.2,1.6l6.1,9.8c0.2,0.4,0.3,0.7,0.3,1.1c0,0.3,0,0.6-0.2,0.8c-0.1,0.2-0.2,0.5-0.4,0.6 c-0.2,0.2-0.4,0.3-0.6,0.4c-0.3,0.1-0.5,0.2-0.8,0.2c-0.7,0-1.3-0.3-1.7-1l-6.8-10.8h-5.7v9.8c0,0.6-0.2,1-0.6,1.4 c-0.4,0.4-0.9,0.6-1.4,0.6c-0.6,0-1-0.2-1.4-0.6C30.6,33.2,30.4,32.8,30.4,32.2 M34.4,7.6v10.7h5.4c0.7,0,1.4-0.1,2.1-0.4 c0.6-0.3,1.2-0.7,1.7-1.2c0.5-0.5,0.9-1.1,1.1-1.7c0.3-0.6,0.4-1.3,0.4-2.1c0-0.7-0.1-1.4-0.4-2.1c-0.3-0.7-0.7-1.2-1.2-1.7 c-0.5-0.5-1.1-0.9-1.7-1.1c-0.6-0.3-1.3-0.4-2.1-0.4H34.4 M25.6,27.3c0.3,0,0.5,0.1,0.8,0.2c0.2,0.1,0.5,0.2,0.6,0.4 c0.2,0.2,0.3,0.4,0.4,0.6c0.1,0.2,0.2,0.5,0.2,0.8c0,0.5-0.2,1-0.6,1.5c-2.8,2.3-6.1,3.4-9.6,3.4c-4.2,0-7.9-1.5-10.8-4.5 c-3-3-4.5-6.6-4.5-10.8c0-4.2,1.5-7.8,4.5-10.8c3-3,6.6-4.5,10.8-4.5c3.6,0,6.9,1.2,9.8,3.6c0.4,0.3,0.5,0.8,0.5,1.4 c0,0.3,0,0.6-0.2,0.8c-0.1,0.2-0.2,0.5-0.4,0.6c-0.2,0.2-0.4,0.3-0.7,0.4c-0.2,0.1-0.5,0.2-0.8,0.2c-0.5,0-1-0.2-1.4-0.6 c-1-0.8-2-1.4-3.2-1.8c-1.2-0.4-2.4-0.6-3.7-0.6c-3.1,0-5.8,1.1-8,3.3c-2.2,2.2-3.3,4.8-3.3,8c0,3.1,1.1,5.8,3.3,8 c2.2,2.2,4.9,3.3,8,3.3c2.7,0,5-0.8,7.1-2.5C24.8,27.5,25.2,27.4,25.6,27.3"></path> <path class="st0" d="M220.3,49.4c0,0.1,0,0.2-0.1,0.2c-0.4,0.3-0.8,0.5-1.2,0.7c-0.4,0.2-0.9,0.2-1.4,0.2c-0.6,0-1.1-0.1-1.6-0.3 c-0.5-0.2-0.9-0.5-1.3-0.9c-0.4-0.4-0.7-0.9-0.9-1.3c-0.2-0.5-0.3-1-0.3-1.6c0-1.1,0.4-2.1,1.2-2.9c0.8-0.8,1.8-1.2,2.9-1.2 c1,0,1.8,0.3,2.6,0.9c0.1,0.1,0.1,0.1,0.1,0.2c0,0.1,0,0.2-0.1,0.2c-0.1,0.1-0.1,0.1-0.2,0.1c-0.1,0-0.2,0-0.3-0.1 c-0.6-0.5-1.3-0.7-2.1-0.7c-1,0-1.8,0.3-2.5,1c-0.7,0.7-1,1.5-1,2.5c0,1,0.3,1.8,1,2.5c0.7,0.7,1.5,1,2.5,1c0.8,0,1.4-0.2,2-0.7 v-2.1h-1.8c-0.1,0-0.2,0-0.2-0.1c-0.1-0.1-0.1-0.1-0.1-0.2c0-0.1,0-0.2,0.1-0.2c0.1-0.1,0.1-0.1,0.2-0.1h2.1c0.1,0,0.2,0,0.2,0.1 c0.1,0.1,0.1,0.1,0.1,0.2V49.4z M204.6,50.2c0,0.1,0,0.2-0.1,0.2c-0.1,0.1-0.1,0.1-0.2,0.1c-0.1,0-0.2,0-0.2-0.1 c-0.1-0.1-0.1-0.1-0.1-0.2v-7.6c0-0.1,0-0.2,0.1-0.2c0.1-0.1,0.1-0.1,0.2-0.1c0.1,0,0.2,0,0.2,0.1l5.4,6.9v-6.7 c0-0.1,0-0.2,0.1-0.2c0.1-0.1,0.1-0.1,0.2-0.1c0.1,0,0.2,0,0.2,0.1c0.1,0.1,0.1,0.1,0.1,0.2v7.6c0,0.1,0,0.2-0.1,0.2 c-0.1,0.1-0.1,0.1-0.2,0.1c-0.1,0-0.2,0-0.2-0.1l-5.4-6.9V50.2z M199.8,42.6c0-0.1,0-0.2,0.1-0.2c0.1-0.1,0.1-0.1,0.2-0.1 c0.1,0,0.2,0,0.2,0.1c0.1,0.1,0.1,0.1,0.1,0.2v7.6c0,0.1,0,0.2-0.1,0.2c-0.1,0.1-0.1,0.1-0.2,0.1c-0.1,0-0.2,0-0.2-0.1 c-0.1-0.1-0.1-0.1-0.1-0.2V42.6z M190.5,42.9c-0.1,0-0.2,0-0.2-0.1c-0.1-0.1-0.1-0.1-0.1-0.2c0-0.1,0-0.2,0.1-0.2 c0.1-0.1,0.1-0.1,0.2-0.1h5.5c0.1,0,0.2,0,0.2,0.1c0.1,0.1,0.1,0.1,0.1,0.2c0,0.1,0,0.2-0.1,0.2c-0.1,0.1-0.1,0.1-0.2,0.1h-2.4v7.3 c0,0.1,0,0.2-0.1,0.2c-0.1,0.1-0.1,0.1-0.2,0.1c-0.1,0-0.2,0-0.2-0.1c-0.1-0.1-0.1-0.1-0.1-0.2v-7.3H190.5z M183.7,42.6 c0-0.1,0-0.2,0.1-0.2c0.1-0.1,0.1-0.1,0.2-0.1c0.1,0,0.2,0,0.2,0.1c0.1,0.1,0.1,0.1,0.1,0.2v7.3h4.3c0.1,0,0.2,0,0.2,0.1 c0.1,0.1,0.1,0.1,0.1,0.2c0,0.1,0,0.2-0.1,0.2c-0.1,0.1-0.1,0.1-0.2,0.1H184c-0.1,0-0.2,0-0.2-0.1c-0.1-0.1-0.1-0.1-0.1-0.2V42.6z M175,42.6c0-0.1,0-0.2,0.1-0.2c0.1-0.1,0.1-0.1,0.2-0.1c0.1,0,0.2,0,0.2,0.1c0.1,0.1,0.1,0.1,0.1,0.2v5.1c0,0.6,0.2,1.1,0.6,1.6 c0.4,0.4,1,0.6,1.6,0.6c0.6,0,1.1-0.2,1.6-0.6c0.4-0.4,0.7-1,0.7-1.6v-5.1c0-0.1,0-0.2,0.1-0.2c0.1-0.1,0.1-0.1,0.2-0.1 c0.1,0,0.2,0,0.2,0.1c0.1,0.1,0.1,0.1,0.1,0.2v5.1c0,0.8-0.3,1.5-0.8,2c-0.6,0.6-1.2,0.8-2,0.8c-0.8,0-1.5-0.3-2-0.8 c-0.3-0.3-0.5-0.6-0.6-0.9c-0.1-0.3-0.2-0.7-0.2-1.1V42.6z M167.4,49.4c0-0.1-0.1-0.1-0.1-0.2c0-0.1,0-0.2,0.1-0.2 c0.1-0.1,0.1-0.1,0.2-0.1c0.1,0,0.2,0,0.3,0.1c0,0.1,0.1,0.1,0.2,0.2c0.2,0.2,0.3,0.3,0.6,0.4c0.2,0.1,0.5,0.2,0.8,0.2 c0.4,0,0.8-0.1,1.1-0.4c0.2-0.2,0.3-0.4,0.5-0.6c0.1-0.2,0.2-0.5,0.2-0.8c0-0.4-0.1-0.8-0.4-1.1c-0.3-0.3-0.7-0.5-1.2-0.6 c-0.6-0.1-1.1-0.4-1.4-0.7c-0.2-0.2-0.3-0.4-0.4-0.6c-0.1-0.2-0.1-0.4-0.1-0.7c0-0.6,0.2-1.2,0.7-1.5c0.4-0.3,0.8-0.5,1.3-0.5 c0.6,0,1.1,0.2,1.5,0.7c0.1,0.1,0.1,0.2,0.2,0.3c0,0,0,0.1,0,0.2c0,0.1,0,0.2-0.1,0.2c-0.1,0.1-0.1,0.1-0.2,0.1 c-0.1,0-0.2,0-0.2-0.1c-0.1-0.1-0.1-0.2-0.2-0.3c-0.3-0.3-0.6-0.5-0.9-0.5c-0.4,0-0.7,0.1-1,0.3c-0.3,0.2-0.5,0.6-0.5,0.9 c0,0.2,0,0.4,0.1,0.5c0,0.2,0.1,0.3,0.3,0.5c0.2,0.3,0.6,0.4,1.1,0.5c0.6,0.1,1.1,0.4,1.5,0.8c0.2,0.2,0.3,0.5,0.4,0.7 c0.1,0.3,0.2,0.5,0.2,0.8c0,0.5-0.1,0.9-0.2,1.1c-0.2,0.3-0.4,0.5-0.6,0.8c-0.5,0.4-1,0.6-1.6,0.6c-0.7,0-1.3-0.3-1.9-0.9 C167.6,49.6,167.5,49.5,167.4,49.4 M158.4,50.2c0,0.1,0,0.2-0.1,0.2c-0.1,0.1-0.1,0.1-0.2,0.1c-0.1,0-0.2,0-0.2-0.1 c-0.1-0.1-0.1-0.1-0.1-0.2v-7.6c0-0.1,0-0.2,0.1-0.2c0.1-0.1,0.1-0.1,0.2-0.1c0.1,0,0.2,0,0.2,0.1l5.4,6.9v-6.7 c0-0.1,0-0.2,0.1-0.2c0.1-0.1,0.1-0.1,0.2-0.1c0.1,0,0.2,0,0.2,0.1c0.1,0.1,0.1,0.1,0.1,0.2v7.6c0,0.1,0,0.2-0.1,0.2 c-0.1,0.1-0.1,0.1-0.2,0.1c-0.1,0-0.2,0-0.2-0.1l-5.4-6.9V50.2z M154.8,46.4c0,1.1-0.4,2.1-1.2,2.9c-0.8,0.8-1.8,1.2-2.9,1.2 c-0.6,0-1.1-0.1-1.6-0.3c-0.5-0.2-0.9-0.5-1.3-0.9c-0.4-0.4-0.7-0.9-0.9-1.3c-0.2-0.5-0.3-1-0.3-1.6c0-1.1,0.4-2.1,1.2-2.9 c0.8-0.8,1.8-1.2,2.9-1.2c1.1,0,2.1,0.4,2.9,1.2C154.4,44.3,154.8,45.2,154.8,46.4 M150.7,42.9c-1,0-1.8,0.3-2.5,1 c-0.7,0.7-1,1.5-1,2.5c0,1,0.3,1.8,1,2.5c0.7,0.7,1.5,1,2.5,1c1,0,1.8-0.3,2.5-1c0.7-0.7,1-1.5,1-2.5c0-1-0.3-1.8-1-2.5 C152.5,43.2,151.6,42.9,150.7,42.9 M143.5,49c0.1,0,0.2,0,0.2,0.1c0.1,0.1,0.1,0.1,0.1,0.2c0,0.1,0,0.2-0.1,0.2 c-0.4,0.3-0.8,0.5-1.2,0.7c-0.4,0.2-0.9,0.2-1.4,0.2c-0.6,0-1.1-0.1-1.6-0.3c-0.5-0.2-0.9-0.5-1.3-0.9c-0.4-0.4-0.7-0.9-0.9-1.3 c-0.2-0.5-0.3-1-0.3-1.6c0-1.1,0.4-2.1,1.2-2.9c0.8-0.8,1.8-1.2,2.9-1.2c1,0,1.9,0.3,2.6,0.9c0.1,0.1,0.1,0.1,0.1,0.2 c0,0.1,0,0.2-0.1,0.2c-0.1,0.1-0.1,0.1-0.2,0.1c-0.1,0-0.2,0-0.3-0.1c-0.6-0.5-1.3-0.7-2.1-0.7c-1,0-1.8,0.3-2.5,1 c-0.7,0.7-1,1.5-1,2.5c0,1,0.3,1.8,1,2.5c0.7,0.7,1.5,1,2.5,1c0.8,0,1.6-0.3,2.2-0.8C143.4,49.1,143.4,49,143.5,49 M128.4,42.2 c0.1,0,0.2,0,0.2,0.1c0.1,0.1,0.1,0.1,0.1,0.2c0,0.1,0,0.2-0.1,0.2c-0.1,0.1-0.1,0.1-0.2,0.1h-4.8V46h3.5c0.1,0,0.2,0,0.2,0.1 c0.1,0.1,0.1,0.1,0.1,0.2c0,0.1,0,0.2-0.1,0.2c-0.1,0.1-0.1,0.1-0.2,0.1h-3.5v3.2h4.8c0.1,0,0.2,0,0.2,0.1c0.1,0.1,0.1,0.1,0.1,0.2 c0,0.1,0,0.2-0.1,0.2c-0.1,0.1-0.1,0.1-0.2,0.1h-5.1c-0.1,0-0.2,0-0.2-0.1c-0.1-0.1-0.1-0.1-0.1-0.2v-7.6c0-0.1,0-0.2,0.1-0.2 c0.1-0.1,0.1-0.1,0.2-0.1H128.4z M119.7,49c0.1,0,0.2,0,0.2,0.1c0.1,0.1,0.1,0.1,0.1,0.2c0,0.1,0,0.2-0.1,0.2 c-0.4,0.3-0.8,0.5-1.2,0.7c-0.4,0.2-0.9,0.2-1.4,0.2c-0.6,0-1.1-0.1-1.6-0.3c-0.5-0.2-0.9-0.5-1.3-0.9c-0.4-0.4-0.7-0.9-0.9-1.3 c-0.2-0.5-0.3-1-0.3-1.6c0-1.1,0.4-2.1,1.2-2.9c0.8-0.8,1.8-1.2,2.9-1.2c1,0,1.8,0.3,2.6,0.9c0.1,0.1,0.1,0.1,0.1,0.2 c0,0.1,0,0.2-0.1,0.2c-0.1,0.1-0.1,0.1-0.2,0.1c-0.1,0-0.2,0-0.3-0.1c-0.6-0.5-1.3-0.7-2.1-0.7c-1,0-1.8,0.3-2.5,1 c-0.7,0.7-1,1.5-1,2.5c0,1,0.3,1.8,1,2.5c0.7,0.7,1.5,1,2.5,1c0.8,0,1.6-0.3,2.2-0.8C119.6,49.1,119.7,49,119.7,49 M104.3,50.2 c0,0.1,0,0.2-0.1,0.2c-0.1,0.1-0.1,0.1-0.2,0.1c-0.1,0-0.2,0-0.2-0.1c-0.1-0.1-0.1-0.1-0.1-0.2v-7.6c0-0.1,0-0.2,0.1-0.2 c0.1-0.1,0.1-0.1,0.2-0.1c0.1,0,0.2,0,0.2,0.1l5.4,6.9v-6.7c0-0.1,0-0.2,0.1-0.2c0.1-0.1,0.1-0.1,0.2-0.1c0.1,0,0.2,0,0.2,0.1 c0.1,0.1,0.1,0.1,0.1,0.2v7.6c0,0.1,0,0.2-0.1,0.2c-0.1,0.1-0.1,0.1-0.2,0.1c-0.1,0-0.2,0-0.2-0.1l-5.4-6.9V50.2z M98.7,46.9 l-1.3-3.5L96,46.9H98.7z M95.8,47.5l-1.1,2.8c0,0,0,0.1-0.1,0.1c-0.1,0.1-0.1,0.1-0.2,0.1c-0.1,0-0.2,0-0.2-0.1 c-0.1-0.1-0.1-0.1-0.1-0.2c0,0,0-0.1,0-0.1l2.9-7.6c0-0.1,0-0.1,0.1-0.1c0.1-0.1,0.1-0.1,0.2-0.1c0.1,0,0.2,0,0.2,0.1 c0,0,0.1,0.1,0.1,0.1l2.9,7.6c0,0,0,0.1,0,0.1c0,0.1,0,0.2-0.1,0.2c-0.1,0.1-0.1,0.1-0.2,0.1c-0.1,0-0.2,0-0.2-0.1 c0,0-0.1-0.1-0.1-0.1L99,47.5H95.8 M83.5,43.9v6.3c0,0.1,0,0.2-0.1,0.2c-0.1,0.1-0.1,0.1-0.2,0.1c-0.1,0-0.2,0-0.2-0.1 c-0.1-0.1-0.1-0.1-0.1-0.2v-7.6c0-0.1,0-0.2,0.1-0.2c0.1-0.1,0.1-0.1,0.2-0.1c0.1,0,0.2,0.1,0.3,0.2l3.5,7.1l3.5-7.1 c0.1-0.1,0.2-0.2,0.3-0.2c0.1,0,0.2,0,0.2,0.1c0.1,0.1,0.1,0.1,0.1,0.2v7.6c0,0.1,0,0.2-0.1,0.2c-0.1,0.1-0.1,0.1-0.2,0.1 c-0.1,0-0.2,0-0.2-0.1c-0.1-0.1-0.1-0.1-0.1-0.2v-6.3l-3.2,6.4c-0.1,0.1-0.2,0.2-0.3,0.2c-0.1,0-0.2-0.1-0.3-0.2L83.5,43.9z M77,42.2c0.7,0,1.2,0.2,1.7,0.7c0.5,0.5,0.7,1,0.7,1.7s-0.2,1.2-0.7,1.7c-0.2,0.2-0.5,0.4-0.8,0.6l1.9,3.1c0,0.1,0.1,0.1,0.1,0.2 c0,0.1,0,0.2-0.1,0.2c-0.1,0.1-0.1,0.1-0.2,0.1c-0.1,0-0.2-0.1-0.3-0.2l-2-3.2c-0.1,0-0.2,0-0.2,0h-1.8v3.1c0,0.1,0,0.2-0.1,0.2 c-0.1,0.1-0.1,0.1-0.2,0.1c-0.1,0-0.2,0-0.2-0.1c-0.1-0.1-0.1-0.1-0.1-0.2v-7.6c0-0.1,0-0.2,0.1-0.2c0.1-0.1,0.1-0.1,0.2-0.1H77z M75.2,42.9v3.6H77c0.5,0,0.9-0.2,1.3-0.5s0.5-0.8,0.5-1.3c0-0.5-0.2-0.9-0.5-1.3c-0.4-0.4-0.8-0.5-1.3-0.5H75.2 M71.6,46.4 c0,1.1-0.4,2.1-1.2,2.9c-0.8,0.8-1.8,1.2-2.9,1.2c-0.6,0-1.1-0.1-1.6-0.3c-0.5-0.2-0.9-0.5-1.3-0.9c-0.4-0.4-0.7-0.9-0.9-1.3 c-0.2-0.5-0.3-1-0.3-1.6c0-1.1,0.4-2.1,1.2-2.9c0.8-0.8,1.8-1.2,2.9-1.2c1.1,0,2.1,0.4,2.9,1.2C71.2,44.3,71.6,45.2,71.6,46.4 M67.5,42.9c-1,0-1.8,0.3-2.5,1c-0.7,0.7-1,1.5-1,2.5c0,1,0.3,1.8,1,2.5c0.7,0.7,1.5,1,2.5,1c1,0,1.8-0.3,2.5-1 c0.7-0.7,1-1.5,1-2.5c0-1-0.3-1.8-1-2.5C69.2,43.2,68.4,42.9,67.5,42.9 M60.6,42.2c0.1,0,0.2,0,0.2,0.1c0.1,0.1,0.1,0.1,0.1,0.2 c0,0.1,0,0.2-0.1,0.2c-0.1,0.1-0.1,0.1-0.2,0.1h-4.8V46h3.5c0.1,0,0.2,0,0.2,0.1c0.1,0.1,0.1,0.1,0.1,0.2c0,0.1,0,0.2-0.1,0.2 c-0.1,0.1-0.1,0.1-0.2,0.1h-3.5v3.5c0,0.1,0,0.2-0.1,0.2c-0.1,0.1-0.1,0.1-0.2,0.1c-0.1,0-0.2,0-0.2-0.1c-0.1-0.1-0.1-0.1-0.1-0.2 v-7.6c0-0.1,0-0.2,0.1-0.2c0.1-0.1,0.1-0.1,0.2-0.1H60.6z M49.3,42.2c0.7,0,1.2,0.2,1.7,0.7c0.5,0.5,0.7,1,0.7,1.7 s-0.2,1.2-0.7,1.7c-0.2,0.2-0.5,0.4-0.8,0.6l1.9,3.1c0,0.1,0.1,0.1,0.1,0.2c0,0.1,0,0.2-0.1,0.2c-0.1,0.1-0.1,0.1-0.2,0.1 c-0.1,0-0.2-0.1-0.3-0.2l-2-3.2c-0.1,0-0.2,0-0.2,0h-1.8v3.1c0,0.1,0,0.2-0.1,0.2c-0.1,0.1-0.1,0.1-0.2,0.1c-0.1,0-0.2,0-0.2-0.1 c-0.1-0.1-0.1-0.1-0.1-0.2v-7.6c0-0.1,0-0.2,0.1-0.2c0.1-0.1,0.1-0.1,0.2-0.1H49.3z M47.5,42.9v3.6h1.8c0.5,0,0.9-0.2,1.3-0.5 c0.4-0.4,0.5-0.8,0.5-1.3c0-0.5-0.2-0.9-0.5-1.3c-0.4-0.4-0.8-0.5-1.3-0.5H47.5 M43.6,42.2c0.1,0,0.2,0,0.2,0.1 c0.1,0.1,0.1,0.1,0.1,0.2c0,0.1,0,0.2-0.1,0.2c-0.1,0.1-0.1,0.1-0.2,0.1h-4.8V46h3.5c0.1,0,0.2,0,0.2,0.1c0.1,0.1,0.1,0.1,0.1,0.2 c0,0.1,0,0.2-0.1,0.2c-0.1,0.1-0.1,0.1-0.2,0.1h-3.5v3.2h4.8c0.1,0,0.2,0,0.2,0.1c0.1,0.1,0.1,0.1,0.1,0.2c0,0.1,0,0.2-0.1,0.2 c-0.1,0.1-0.1,0.1-0.2,0.1h-5.1c-0.1,0-0.2,0-0.2-0.1c-0.1-0.1-0.1-0.1-0.1-0.2v-7.6c0-0.1,0-0.2,0.1-0.2c0.1-0.1,0.1-0.1,0.2-0.1 H43.6z M32.4,42.2c0.7,0,1.4,0.3,1.9,0.8c0.5,0.5,0.8,1.1,0.8,1.9c0,0.7-0.3,1.4-0.8,1.9c-0.5,0.5-1.1,0.8-1.9,0.8h-1.4v2.6 c0,0.1,0,0.2-0.1,0.2c-0.1,0.1-0.1,0.1-0.2,0.1c-0.1,0-0.2,0-0.2-0.1c-0.1-0.1-0.1-0.1-0.1-0.2v-7.6c0-0.1,0-0.2,0.1-0.2 c0.1-0.1,0.1-0.1,0.2-0.1H32.4z M31.1,42.9v4h1.4c0.6,0,1-0.2,1.4-0.6c0.4-0.4,0.6-0.9,0.6-1.4c0-0.6-0.2-1-0.6-1.4 c-0.4-0.4-0.9-0.6-1.4-0.6H31.1"></path> </g> </svg> 